<?xml version="1.0" encoding="UTF-8"?>
<svg id="Layer_1" xmlns="http://www.w3.org/2000/svg" version="1.1" viewBox="0 0 375.9 140.4">
  <!-- Generator: Adobe Illustrator 29.1.0, SVG Export Plug-In . SVG Version: 2.1.0 Build 142)  -->
  <defs>
    <style>
      .st0 {
        fill: #dc0000;
      }

      .st1 {
        fill: #dddddc;
      }

      .st2 {
        fill: #535c60;
      }
    </style>
  </defs>
  <g>
    <path class="st0" d="M293.3,68.3c4.6-2.6,9.2-5.1,13.8-7.7,5.6,11.2,11.1,22.1,16.5,33.1h.4c5.3-10.9,10.7-21.8,16.2-33,4.7,2.5,9.4,5.1,14.1,7.7-1.7,2.3-3.3,4.3-4.7,6.5-3.9,6.1-7.6,12.2-11.5,18.3-.2.4-.7.7-1.1.8-5.1.9-9.8,2.7-13.3,6.8-3.5-3.9-8-5.8-13.1-6.6-.4,0-.8-.3-1-.6-4-6.2-7.9-12.3-11.9-18.5-1.4-2.2-2.9-4.3-4.5-6.6M304.1,78.5c.1,0,.2-.2.3-.2-.1-.3-.2-.5-.3-.8-1.5-3.2-3.1-6.3-4.7-9.5-.3-.6-1-1-1.6-1.3-.2,0-.8.2-1.1.4-.1,0-.1.6,0,.9.4.7.8,1.4,1.3,2.1,2,2.8,4,5.6,6,8.3M305.7,63.8c-2.2.4-3.7,1.6-5.4,2.8,2.3,1,5.2-.5,5.4-2.8"/>
    <path class="st2" d="M369.3,133.2c-2.7-10.5-5.3-20.7-7.9-30.8,1.2.3,2.4.5,3.6.8s.9.7,1.1,1.1c1.8,6.7,3.6,13.4,5.4,20.1,1.3,4.8,2.7,9.6,4.1,14.4.1.5.2,1,.3,1.6-3.6-1.3-7.1-2.6-10.5-3.7-6-2-12.1-3.8-18.5-4.2-2.9-.2-5.9,0-8.8.4-2.6.3-4.9,1.5-6.4,3.6-2.9,4-9.9,4.1-13.2,2.1-.7-.4-1.4-.8-1.9-1.4-2.7-3.5-6.5-4.6-10.7-4.8-5.8-.4-11.5.8-17,2.4-5.9,1.7-11.7,3.7-17.6,5.5.1-.4.3-1,.5-1.6,3.2-11.5,6.5-23,9.7-34.5,0-.3.3-.7.6-.8,1.2-.4,2.5-.7,4.1-1.2-2.6,10.4-5.2,20.5-7.9,30.9,3.9-1.2,7.6-2.3,11.2-3.3,4-1.1,8.1-2.3,12.3-2.5,7.1-.3,13.5,1.5,18.7,6.6,2.7,2.6,3.2,2.7,5.8,0,6.1-6.1,13.5-7.8,21.6-6.4,4.7.8,9.4,2.3,14,3.5,2.3.6,4.5,1.3,7.2,2.1"/>
    <path class="st1" d="M306.3,31.2c3.2,1.3,6.3,2.7,9.5,3.9,2.3.8,4.7,1.5,7.1,2,1,.2,2.3,0,3.3-.3,4.6-1.6,9.1-3.3,13.6-5,.5-.2.8-.5,1.3-.8,3.4,6.5,3.2,15.8-5,23-6.7,5.8-16.8,6.8-24.4.4-7.1-5.8-9.5-16.2-5.4-23.2M318.1,53.7c-3.5-1.8-5.9-4.7-7.3-8.3-1.5-3.7-1.3-7.4.1-11-.7-.4-1.3-.8-2-1.2-4.1,8,1.5,20.3,9.2,20.5"/>
    <path d="M364.8,99.1c-1.2-.2-2.5-.3-3.7-.5-.2,0-.6-.2-.7-.4-.2-1-1.1-1.2-1.9-1.5-5.5-1.7-11.1-3.3-16.9-3.3,0,0-.1,0-.4-.2,5-7.5,9.9-15,15.1-22.8,1.6,1.8,3.1,3.1,4.3,4.6,2.6,3.2,4,7,4.1,11.1v12.9"/>
    <path d="M293.3,73.9c2,2.9,4,5.8,6,8.7,2.1,3.1,4.1,6.3,6.2,9.5.2.4.4.8.7,1.3-6.2,0-11.9,1.5-17.6,3.5-.5.2-.9.7-1.4,1-.2,0-.4.3-.6.3-1.4.3-2.8.6-4.2.9v-1.5c.2-4.9,0-9.9.8-14.7.8-5,3.9-9,7.9-12.4.8,1.2,1.6,2.3,2.3,3.3-1.7-.5-2.8.5-3.7,1.6-3.8,4.4-5,9.5-4,15.1,0,.5.2.9.3,1.3.4-.4.5-.8.6-1.2.2-1.3.4-2.5.6-3.8.4-4,2.5-7.4,4.7-10.6.6-.8,1-1.7,1.5-2.5"/>
    <path d="M323.7,86.2c-1.3-2.5-2.6-5.1-3.9-7.6-.2-.4,0-.9,0-1.3.4-2.4.9-4.7,1.3-7.1,0-.6-.1-1.3-.5-1.8-.8-1.1-1.7-2.1-2.6-3.1.9-1.1,1.9-2.3,2.7-3.3h6.4c.9,1.1,1.7,1.9,2.6,2.8-1,1.1-1.9,2.1-2.8,2.9-.9.9-1.2,1.9-.9,3.2.5,2.2,1.1,4.4,1.6,6.7,0,.4.1.9,0,1.3-1.2,2.4-2.5,4.8-3.9,7.4"/>
    <path class="st2" d="M326.2,130.5c-1.1-2.2-1.1-2.5.6-4,3.8-3.4,8.5-5,13.5-5.6,6.2-.8,12.1.8,17.9,2.6,1.7.5,3.3,1.1,5,1.6.3,0,.6.4.7.7.2.9.4,1.8.5,2.8-2.3-.7-4.6-1.4-6.8-2.1-6.1-2-12.3-3.4-18.9-2.2-4.5.8-8.4,2.8-11.9,5.7-.2.1-.4.3-.6.4"/>
    <path class="st2" d="M283.2,128.7c.2-1.1.4-2,.6-2.9,0-.3.4-.5.6-.6,5.8-2,11.5-4.1,17.7-4.3,7-.3,13.3,1.7,18.7,6.3.9.7,1.2,1.5.6,2.6-.1.3-.1.6-.2,1-.2,0-.4-.1-.5-.2-6.4-5.5-13.8-7.5-22-6.1-5,.9-9.9,2.7-14.9,4-.2,0-.4.1-.8.2"/>
    <path class="st2" d="M325.9,124.4c0,0-.1-.2-.1-.2-1-2.1.2-3.3,1.8-4.5,5.3-3.7,11.1-5.1,17.5-4.7,5.7.4,11.2,2.2,16.5,4.1.3,0,.5.4.6.7.2.8.3,1.6.5,2.7-1.6-.5-3.1-1-4.7-1.4-3.9-1-7.7-2.2-11.6-2.7-7.3-.9-14,1.1-19.9,5.6-.2,0-.3.2-.6.4"/>
    <path class="st2" d="M285,122.5c.1-.7.2-1.2.3-1.7.1-.5.2-1,.4-1.8,4.1-1.1,8.2-2.4,12.4-3.3,7.6-1.6,14.7-.4,21.2,4.1.5.4,1,.8,1.4,1.2,1.5,1.4,1.4,1.5.5,3.5-1.3-.8-2.5-1.7-3.8-2.5-7.6-4.4-15.6-4.4-23.8-2.1-2.4.7-4.8,1.5-7.1,2.2-.4,0-.8.3-1.5.5"/>
    <path class="st2" d="M361,116.6c-1.6-.5-3.1-1-4.6-1.5-4.7-1.6-9.5-2.8-14.5-2.6-4.7.3-9.2,1.5-13.2,4.1-.9.6-1.7,1.1-2.7,1.7-.2-.7-.5-1.3-.6-2,0-.3.1-.6.3-.8,3.9-3.7,8.6-5.5,13.9-6.2,6.5-.8,12.6.9,18.7,3q2.8,1,2.8,4.2"/>
    <path class="st2" d="M321.2,118.5c-3-2.4-6.3-4-9.9-5.1-6.2-1.8-12.2-.8-18.2.9-2.1.6-4.3,1.3-6.6,2.1.1-1,.2-2,.4-2.9,0-.2.2-.5.4-.5,5-1.6,9.9-3.5,15.2-3.7,6.1-.3,11.8,1,16.9,4.6.3.2.6.5,1,.8,1.4,1,1.7,2.2.8,3.8"/>
    <path class="st2" d="M359.5,110.3c-3.1-.9-6-1.9-8.9-2.7-5.1-1.3-10.3-1.6-15.4,0-2.7.9-5.1,2.3-7.7,3.6-.6.3-1.1.6-1.6.9q-1-2,.6-3.4c6.3-5.3,13.6-6.3,21.4-5,3.7.6,7.2,2,10.8,3.1.2,0,.5.4.6.6.2.8.2,1.7.3,2.7"/>
    <path class="st2" d="M325.9,106.4c-.6-1.7-.3-3,1-4.1,4.9-4,10.7-5.3,16.9-5.1,4.6,0,8.9,1.7,13.2,3,.3,0,.6.6.7.9.2.9.3,1.8.5,2.9-.5-.2-1-.3-1.5-.5-4-1.3-7.9-2.7-12.1-3-6.8-.5-12.9,1.3-18.2,5.4-.1,0-.3.2-.5.3"/>
    <path class="st2" d="M321.3,112.6c-10.5-8.2-21.7-6.9-33.3-2.1.1-1.4.3-2.5.4-3.7,3.8-1,7.4-2.1,11.2-2.9,6.8-1.4,13.3-.2,19.3,3.6,1.1.7,1.9,1.7,2.9,2.6.2.2.2.6.2.9-.1.6-.3,1.1-.5,1.7"/>
    <path class="st2" d="M321.4,106.3c-1.3-.8-2.4-1.6-3.6-2.3-4.9-3-10.3-4-16-3.2-4.2.7-8.4,1.9-12.5,2.9.1-.9.3-2.1.5-3.6,4.3-1,8.7-2.3,13.2-2.8,6.9-.8,13.2,1.1,18.4,5.9.3.3.4.8.4,1.2s-.2,1.1-.4,1.8"/>
    <path d="M356.6,39.7c.5-2.1-.2-3-2.1-3.8v-19.2c2.7-.9,5.3-1.8,8-2.8-.4-.2-.6-.5-.9-.5-5.1-1.9-10.3-3.9-15.5-5.8-7.1-2.5-14.2-5-21.3-7.4-.8-.2-1.8-.3-2.5,0-5.4,1.8-10.8,3.7-16.2,5.7-6.7,2.5-13.3,5.1-20,7.7-.5.1-.9.5-1.5.8,6.3,2,12.3,3.8,18.3,5.7.4-1.8.2-2.4-1.4-3-2.6-1-5.3-1.9-7.9-2.8-.6-.2-1.1-.5-1.6-.7.1,0,.2-.3.2-.4,4.3,1,8.6,1.9,12.9,2.9v8.1c0,1.5.7,2.6,2.2,3.2.3,0,.5.3.8.4,4.8,2.5,9.9,4.1,15.1,5.5.5.2,1.1.1,1.6,0,5.8-1.6,11.4-3.9,16.9-6.4.7-.4.9-.7.9-1.4v-7.5c0-1.6.3-1.8,2.1-1.6v3.9c2.2-.8,4.2-1.4,6.3-2.2v1.8c.1,5.2.2,10.5.2,15.7s0,.7-.3.8c-1.5,1.1-2.1,2.6-1.5,4.5.3.7.3,1.5.3,2.2-.2,4.2-.5,8.3-.8,12.5v1.1c2.6.6,5.1.6,7.6.2.7-.2.9-.5.9-1.2-.2-2.7-.5-5.4-.6-8.1-.2-2.6-.8-5.2-.2-7.9ZM317,27.7c0,0,0,.3-.2.4h0c-1-.3-2.1-.5-3.1-.8-1.7-.6-3.4-1.2-5.1-1.9-.4-.2-.8-.8-.8-1.1,0,0,0,0,0,0,0,0,0,0,0,0,.1-2.4.4-4.7.6-7.1h.8c1.6.2,2,.2,2,1.2,0,.3,0,.7,0,1.2-.1,1.2,0,2.4-.1,3.6,0,.5.1.9.3,1.3.3.4.7.7,1.2.9,1.1.5,2.3,1.1,3.4,1.6.4.2.7.5,1.1.7,0,0,0,0,0,0,0,0,0,0,0,0ZM324,14.2s0,0,0,0c0,0,0,0,0,0-1.9,0-3.5-1.5-3.5-3.4s1.6-3.1,3.6-3.1c0,0,0,0,0,0,0,0,0,0,0,0,0,0,0,0,0,0h0s0,0,0,0c2,0,3.5,1.3,3.5,2.9s-1.9,3.6-3.6,3.6Z"/>
  </g>
  <path class="st2" d="M2.4,58.9c-.3-.4-.5-.9-.6-1.4-.2-.5-.2-1.1-.2-1.8s.1-1.3.3-2,.6-1.3,1.1-1.9c.5-.5,1.1-1,1.9-1.3s1.7-.5,2.8-.5,2,.2,2.8.6c.8.4,1.5.9,2,1.6,0,0,.1.2.1.3,0,0,0,0-.1.2l-1.5,1.5c-.2.2-.4.2-.6,0-.4-.4-.8-.6-1.2-.9-.4-.2-.9-.3-1.5-.3-.9,0-1.5.3-2,.8s-.7,1.2-.7,2,.2,1.4.5,1.9.7,1,1.1,1.2h6c.2,0,.4,0,.4.4v2.2c0,.3-.1.4-.4.4H.4c-.2,0-.4,0-.4-.4v-2.2c0-.3.1-.4.4-.4h2.1,0ZM16.1,38c0-.2.1-.4.4-.4h3.3c.2,0,.4,0,.4.4v18.4c0,.7.1,1.2.4,1.5s.7.4,1.3.4h1.2c.5,0,.8,0,1.1.4.2.3.4.7.4,1.4s-.1,1.2-.3,1.4c-.2.2-.6.3-1.1.3h-2.8c-1.5,0-2.5-.4-3.2-1.1-.6-.7-1-1.9-1-3.4v-19.4h0ZM30.7,56.1c0,.7.3,1.3.8,1.6.5.4,1.3.6,2.2.6h.6c.5,0,.8,0,1.1.4.2.3.4.7.4,1.3s0,1.2-.3,1.4c-.2.3-.6.4-1.1.4-.9,0-1.7,0-2.4-.3s-1.2-.7-1.6-1.5c-.3.7-.8,1.2-1.5,1.4-.6.3-1.5.4-2.7.4h-2.8c-.5,0-.8,0-1.1-.2-.2-.2-.4-.5-.4-1s.1-1.1.3-1.6c.2-.5.6-.7,1.1-.7h1.7c.4,0,.7,0,1-.2.2,0,.4-.3.5-.6s.2-.6.2-1v-9.1c0-.2.1-.4.4-.4h3.3c.2,0,.4,0,.4.4v8.7h0ZM27,43.6c-.2,0-.4,0-.4-.4v-3.1c0-.2.1-.4.4-.4h3.4c.2,0,.4,0,.4.4v3.1c0,.2-.1.4-.4.4h-3.4ZM41.7,56.1c0,.7.3,1.3.8,1.6.5.4,1.3.6,2.2.6h.6c.5,0,.8,0,1.1.4.2.3.4.7.4,1.3s0,1.2-.3,1.4c-.2.3-.6.4-1.1.4-.9,0-1.7,0-2.4-.3s-1.2-.7-1.6-1.5c-.3.7-.8,1.2-1.5,1.4-.6.3-1.5.4-2.7.4h-2.8c-.5,0-.8,0-1.1-.2-.2-.2-.4-.5-.4-1s0-1.1.3-1.6.6-.7,1.1-.7h1.7c.4,0,.7,0,1-.2.2,0,.4-.3.5-.6s.2-.6.2-1v-9.1c0-.2,0-.4.4-.4h3.3c.2,0,.4,0,.4.4v8.7h-.1ZM38,68.7c-.2,0-.4,0-.4-.4v-3.1c0-.2,0-.4.4-.4h3.4c.2,0,.4,0,.4.4v3.1c0,.2,0,.4-.4.4h-3.4ZM45.1,61.9c-.5,0-.8,0-1.1-.3-.2-.2-.4-.7-.4-1.4s0-1.1.3-1.4c.2-.3.6-.4,1.1-.4h1.7c.6,0,1,0,1.3-.4.3-.3.4-.8.4-1.5v-18.4c0-.2,0-.4.4-.4h3.3c.2,0,.4,0,.4.4v19.4c0,1.5-.3,2.7-1,3.4-.6.7-1.7,1.1-3.2,1.1h-3.3,0ZM85.5,65.5c1.4,0,2.4-.2,2.9-.5.5-.4.8-.8.8-1.4s0-.8-.4-1.2c-.3-.3-.7-.6-1.3-.9s-1.3-.6-2.2-.9c-.9-.3-1.9-.7-3.2-1.2-.2,0-.3-.2-.2-.4l1-2.8c0-.2.2-.3.4-.2.8.3,1.5.6,2.2.9.7.3,1.4.6,2,.8.7.2,1.3.4,2,.6.6.2,1.3.2,2,.2h3.6c.5,0,.8,0,1.1.4.2.2.4.7.4,1.3s0,1.2-.3,1.5c-.2.3-.6.4-1.1.4h-2.5c0,.2.3.5.4.9.2.4.2.9.2,1.3s0,1.3-.4,1.9-.7,1.1-1.2,1.6c-.6.5-1.3.8-2.2,1.1-.9.3-2,.4-3.3.4h-8.1c-3.1,0-5.4-.7-6.9-2.1s-2.3-3.4-2.3-5.8,0-1.3.2-2c0-.7.3-1.3.5-2,.2-.6.5-1.2.7-1.8.3-.6.6-1.1.9-1.5,0-.2.3-.2.5,0l2.8,1.5c.2,0,.2.3,0,.5-.4.7-.8,1.4-1.1,2.3-.3.9-.5,1.8-.5,2.7s.2,1.7.5,2.2c.3.6.7,1.1,1.3,1.4.5.4,1.1.6,1.8.8.7.2,1.3.2,2,.2h6.9v-.2ZM77.5,75.4c-.2,0-.4,0-.4-.4v-3.1c0-.2,0-.4.4-.4h3c.2,0,.4,0,.4.4v3.1c0,.2,0,.4-.4.4h-3ZM82.2,75.4c-.2,0-.4,0-.4-.4v-3.1c0-.2,0-.4.4-.4h3c.2,0,.4,0,.4.4v3.1c0,.2,0,.4-.4.4h-3ZM102.7,56.1c0,.7.3,1.3.8,1.6.5.4,1.3.6,2.2.6h.6c.5,0,.8,0,1.1.4.2.3.4.7.4,1.3s0,1.2-.3,1.4c-.2.3-.6.4-1.1.4-.9,0-1.7,0-2.4-.3-.7-.2-1.2-.7-1.6-1.5-.3.7-.8,1.2-1.5,1.4-.6.3-1.5.4-2.7.4h-2.8c-.5,0-.8,0-1.1-.2-.2-.2-.4-.5-.4-1s0-1.1.3-1.6c.2-.5.6-.7,1.1-.7h1.7c.4,0,.7,0,1-.2.2,0,.4-.3.5-.6s.2-.6.2-1v-9.1c0-.2,0-.4.4-.4h3.3c.2,0,.4,0,.4.4v8.7h0ZM99,43.6c-.2,0-.4,0-.4-.4v-3.1c0-.2,0-.4.4-.4h3.4c.2,0,.4,0,.4.4v3.1c0,.2,0,.4-.4.4h-3.4ZM109.7,54c0-1.4.2-2.5.6-3.5s.9-1.7,1.5-2.3c.7-.6,1.4-1,2.3-1.3s1.8-.4,2.9-.4,2,0,2.9.4c.9.3,1.7.7,2.3,1.3.7.6,1.2,1.4,1.5,2.5.4,1,.6,2.2.6,3.7v1.2c0,1,.3,1.7.7,2.1.4.4.9.6,1.5.6h1c.5,0,.8,0,1.1.4.2.3.4.7.4,1.3s-.1,1.2-.3,1.4c-.2.3-.6.4-1.1.4h-1.3c-.4,0-.9,0-1.3-.2-.4,0-.9-.3-1.3-.6s-.7-.6-1.1-1.1c-.6.8-1.4,1.3-2.4,1.7-1,.3-2,.5-3.3.5s-2.3-.2-3.2-.5c-1-.3-1.7-.9-2.4-1.6-.2.4-.5.7-.9.9-.3.2-.7.4-1,.6-.4,0-.7.2-1.1.3h-2.3c-.5,0-.8,0-1.1-.4-.2-.3-.4-.7-.4-1.4s0-1.2.3-1.4c.2-.2.6-.4,1.1-.4h1.4c.6,0,1.1-.2,1.5-.7.5-.5.7-1.3.7-2.5v-1h.2ZM120.4,54.3c0-2.9-1.1-4.3-3.4-4.3s-2,.4-2.5,1.1c-.5.7-.8,1.8-.8,3.2s.3,2.6.8,3.3,1.4,1,2.5,1,2-.3,2.6-1c.5-.7.8-1.8.8-3.2h0ZM135.2,60.1c-.3.7-.8,1.2-1.5,1.4-.7.3-1.6.4-2.7.4h-3.3c-.5,0-.8,0-1.1-.3-.2-.2-.4-.7-.4-1.3s0-1.2.3-1.5c.2-.3.6-.4,1.1-.4h2.3c.4,0,.8,0,1-.2.2,0,.4-.3.5-.6s.2-.6.2-1.1v-9c0,0,0-.2.2-.3h3.4c.2,0,.4,0,.4.4v8.7c0,.7.3,1.3.8,1.6.5.4,1.3.6,2.2.6h.6c.5,0,.8,0,1.1.4.2.3.4.7.4,1.3s-.1,1.2-.3,1.4c-.2.3-.6.4-1.1.4-.9,0-1.7,0-2.4-.3s-1.2-.7-1.6-1.5h0ZM129.7,68.7c-.2,0-.4,0-.4-.4v-3.1c0-.2.1-.4.4-.4h3c.2,0,.4,0,.4.4v3.1c0,.2-.1.4-.4.4h-3ZM134.3,68.7c-.2,0-.4,0-.4-.4v-3.1c0-.2.1-.4.4-.4h3c.2,0,.4,0,.4.4v3.1c0,.2-.1.4-.4.4h-3ZM139.3,61.9c-.5,0-.8,0-1.1-.3-.2-.2-.4-.7-.4-1.4s.1-1.1.3-1.4c.2-.3.6-.4,1.1-.4h1.7c.6,0,1,0,1.3-.4.3-.3.4-.8.4-1.5v-18.4c0-.2.1-.4.4-.4h3.3c.2,0,.4,0,.4.4v19.4c0,1.5-.3,2.7-1,3.4-.6.7-1.7,1.1-3.2,1.1h-3.3.1ZM155.4,61.5c0,.2-.1.4-.4.4h-3.3c-.2,0-.4,0-.4-.4v-23.5c0-.2.1-.4.4-.4h3.3c.2,0,.4,0,.4.4v23.5ZM174.4,47.5c0-.2.1-.4.4-.4h3.3c.2,0,.4,0,.4.4v8.7c0,.7.3,1.3.8,1.6.5.4,1.3.6,2.2.6h.6c.5,0,.8,0,1.1.4.2.3.4.7.4,1.3s-.1,1.2-.3,1.4c-.2.3-.6.4-1.1.4-.8,0-1.5,0-2.1-.2-.6,0-1.1-.5-1.5-1v.7c0,1.3-.1,2.4-.3,3.4s-.6,1.8-1,2.4c-.5.6-1.1,1.1-1.9,1.4-.8.3-1.8.5-3,.5h-1.3c-.2,0-.4,0-.4-.4v-2.8c0-.2.1-.4.4-.4h.8c.7,0,1.2,0,1.6-.4.4-.2.7-.6.8-1.1.2-.5.3-1,.3-1.7v-15l-.2.2ZM174.7,43.6c-.2,0-.4,0-.4-.4v-3.1c0-.2.1-.4.4-.4h3.4c.2,0,.4,0,.4.4v3.1c0,.2-.1.4-.4.4h-3.4ZM189.3,46.9c1.3,0,2.4,0,3.5.3s1.9.5,2.7.9c.7.5,1.3,1.1,1.7,2s.6,2,.6,3.5v2.1c0,1.2-.1,2.2-.3,2.9-.2.8-.5,1.4-1,1.9-.4.5-1,.8-1.6,1s-1.4.3-2.3.3h-10.5c-.5,0-.8,0-1.1-.4-.2-.3-.4-.8-.4-1.5s.1-1.2.3-1.4.6-.3,1.1-.3h8.8c.6,0,1.2,0,1.5,0,.4,0,.7-.2.9-.5.2-.2.3-.5.4-.9v-3.2c0-1.1-.3-1.8-.9-2.4-.6-.5-1.5-.8-2.8-.8h-5.7c-.2,0-.4,0-.4-.4v-2.5c0-.2,0-.3.2-.5s.3-.3.4-.4l7.7-9c.1-.2.3-.2.5,0l2.3,1.9c.2,0,.2.3.1.5l-5.9,6.9.2.2ZM203.5,47.5c0-.2.1-.4.4-.4h3.3c.2,0,.4,0,.4.4v8.7c0,.7.3,1.3.8,1.6.5.4,1.3.6,2.2.6h.6c.5,0,.8,0,1.1.4.2.3.4.7.4,1.3s-.1,1.2-.3,1.4c-.2.3-.6.4-1.1.4-.8,0-1.5,0-2.1-.2-.6,0-1.1-.5-1.5-1v.7c0,1.3-.1,2.4-.3,3.4s-.6,1.8-1,2.4c-.5.6-1.1,1.1-1.9,1.4-.8.3-1.8.5-3,.5h-1.3c-.2,0-.4,0-.4-.4v-2.8c0-.2.1-.4.4-.4h.8c.7,0,1.2,0,1.6-.4.4-.2.7-.6.8-1.1.2-.5.3-1,.3-1.7v-15l-.2.2ZM214.7,54c0-1.4.2-2.5.6-3.5.4-1,.9-1.7,1.5-2.3.7-.6,1.4-1,2.3-1.3.9-.3,1.8-.4,2.9-.4s2,0,2.9.4c.9.3,1.7.7,2.3,1.3.7.6,1.2,1.4,1.5,2.5.4,1,.6,2.2.6,3.7v1.2c0,1,.3,1.7.7,2.1.4.4.9.6,1.5.6h1c.5,0,.8,0,1.1.4.2.3.4.7.4,1.3s-.1,1.2-.3,1.4c-.2.3-.6.4-1.1.4h-1.3c-.4,0-.9,0-1.3-.2s-.9-.3-1.3-.6c-.4-.3-.7-.6-1.1-1.1-.6.8-1.4,1.3-2.4,1.7-1,.3-2,.5-3.3.5s-2.3-.2-3.2-.5c-1-.3-1.7-.9-2.4-1.6-.2.4-.5.7-.9.9-.3.2-.7.4-1,.6-.4,0-.7.2-1.1.3h-2.3c-.5,0-.8,0-1.1-.4-.2-.3-.4-.7-.4-1.4s.1-1.2.3-1.4.6-.4,1.1-.4h1.4c.6,0,1.1-.2,1.5-.7.5-.5.7-1.3.7-2.5v-1h.2ZM225.4,54.3c0-2.9-1.1-4.3-3.4-4.3s-2,.4-2.5,1.1c-.5.7-.8,1.8-.8,3.2s.3,2.6.8,3.3,1.4,1,2.5,1,2-.3,2.6-1c.5-.7.8-1.8.8-3.2h0ZM232.5,61.9c-.5,0-.8,0-1.1-.3-.2-.2-.4-.7-.4-1.4s.1-1.1.3-1.4c.2-.3.6-.4,1.1-.4h1.7c.6,0,1,0,1.3-.4.3-.3.4-.8.4-1.5v-18.4c0-.2.1-.4.4-.4h3.3c.2,0,.4,0,.4.4v19.4c0,1.5-.3,2.7-1,3.4-.6.7-1.7,1.1-3.2,1.1h-3.3.1ZM248.6,61.5c0,.2-.1.4-.4.4h-3.3c-.2,0-.4,0-.4-.4v-23.5c0-.2.1-.4.4-.4h3.3c.2,0,.4,0,.4.4v23.5Z"/>
  <path class="st2" d="M21.7,101.1c.6,0,1.1,0,1.3-.4.3-.3.4-.8.4-1.5v-9c0-.2.1-.4.4-.4h3.3c.2,0,.4,0,.4.4v9.9c0,1.5-.3,2.7-1,3.4-.6.7-1.7,1.1-3.3,1.1H5.4c-1.5,0-2.6-.4-3.2-1.1-.6-.7-1-1.9-1-3.4v-7.7c0-.2.1-.4.4-.4h3.3c.2,0,.4,0,.4.4v6.7c0,.7,0,1.2.4,1.5s.7.4,1.3.4h14.7ZM10.6,88.4c-.2,0-.4,0-.4-.4v-3.1c0-.2.1-.4.4-.4h3c.2,0,.4,0,.4.4v3.1c0,.2-.1.4-.4.4h-3ZM15.2,88.4c-.2,0-.4,0-.4-.4v-3.1c0-.2.1-.4.4-.4h3c.2,0,.4,0,.4.4v3.1c0,.2-.1.4-.4.4h-3ZM35.5,104.3c0,.2,0,.4-.4.4h-3.3c-.2,0-.4,0-.4-.4v-23.5c0-.2.1-.4.4-.4h3.3c.2,0,.4,0,.4.4v23.5ZM38.3,111.8c-.2,0-.4,0-.4-.4v-2.8c0-.2,0-.4.4-.4h.8c1,0,1.7-.2,2.2-.7.4-.5.7-1.3.7-2.3v-15c0-.2,0-.4.4-.4h3.3c.2,0,.4,0,.4.4v15.1c0,4.3-2.1,6.5-6.3,6.5h-1.5ZM51.8,92.8c-.2,0-.4,0-.4-.4v-2.8c0-.2,0-.4.4-.4h5.4c2,0,3.6.5,4.7,1.5,1.2,1,1.7,2.6,1.7,4.9v3.3c0,.7.3,1.2.8,1.6s1.2.6,2.1.6h.6c.5,0,.8,0,1.1.4.2.3.4.7.4,1.3s0,1.2-.3,1.4c-.2.3-.6.4-1.1.4-1,0-1.9,0-2.6-.4-.7-.3-1.3-.8-1.7-1.7-.4.8-1.1,1.4-1.8,1.6-.8.3-1.8.4-3,.4h-8c-.2,0-.4,0-.4-.4v-2.8c0-.2,0-.4.4-.4h6.6c.6,0,1.2,0,1.5,0,.4,0,.7-.3.9-.5s.3-.5.4-.9v-3.7c0-1.1-.3-1.9-.9-2.4-.6-.5-1.5-.7-2.7-.7h-4.3l.2.2ZM67.3,104.6c-.5,0-.8,0-1-.4s-.3-.7-.3-1.3,0-1.2.2-1.5.5-.4,1-.4h4.3c.5,0,.8,0,1.1.4.2.3.4.7.4,1.4s0,1.2-.3,1.5c-.2.2-.6.3-1.1.3,0,0-4.3,0-4.3,0ZM81.1,89.2c2.4,0,4.3.6,5.6,1.7,1.3,1.1,1.9,2.7,1.9,4.6s-.3,2.2-.8,3.2-1.3,1.7-2.2,2.4h5.1c.5,0,.8,0,1.1.3.2.2.4.7.4,1.3s0,1.2-.3,1.5c-.2.3-.6.4-1.1.4h-5c-.9,0-1.7,0-2.4,0-.8,0-1.5-.3-2.2-.7-.8.4-1.6.7-2.5.7s-1.7,0-2.4,0h-4.7c-.5,0-.8,0-1.1-.4-.2-.3-.4-.8-.4-1.4s0-1.2.3-1.4.6-.3,1.1-.3h5c-.9-.6-1.6-1.4-2.1-2.4s-.8-2-.8-3.2c0-1.9.6-3.5,1.9-4.6s3.1-1.7,5.6-1.7ZM77.4,86.3c-.2,0-.4,0-.4-.4v-3.1c0-.2,0-.4.4-.4h3c.2,0,.4,0,.4.4v3.1c0,.2,0,.4-.4.4h-3ZM81.1,92.4c-.9,0-1.7.3-2.4.9-.7.6-1,1.4-1,2.6s.3,2.2,1,2.9c.7.7,1.5,1.3,2.4,1.7.9-.4,1.7-1,2.4-1.7.7-.7,1-1.7,1-2.9s-.3-2-1-2.6-1.5-.9-2.4-.9ZM82.1,86.3c-.2,0-.4,0-.4-.4v-3.1c0-.2,0-.4.4-.4h3c.2,0,.4,0,.4.4v3.1c0,.2,0,.4-.4.4h-3ZM90.7,104.6c-.5,0-.8,0-1-.4s-.3-.7-.3-1.3,0-1.2.2-1.5.5-.4,1-.4h4.3c.5,0,.8,0,1.1.4.2.3.4.7.4,1.4s0,1.2-.3,1.5c-.2.2-.6.3-1.1.3,0,0-4.3,0-4.3,0ZM95,104.6c-.5,0-.8,0-1-.4s-.3-.7-.3-1.3,0-1.2.2-1.5.5-.4,1-.4h4.3c.5,0,.8,0,1.1.4.2.3.4.7.4,1.4s0,1.2-.3,1.5c-.2.2-.6.3-1.1.3,0,0-4.3,0-4.3,0ZM99.2,104.6c-.5,0-.8,0-1.1-.3-.2-.2-.4-.7-.4-1.4s0-1.1.3-1.4c.2-.3.6-.4,1.1-.4h1.7c.6,0,1,0,1.3-.4s.4-.8.4-1.5v-18.4c0-.2,0-.4.4-.4h3.3c.2,0,.4,0,.4.4v19.4c0,1.5-.3,2.7-1,3.4-.6.7-1.7,1.1-3.2,1.1h-3.3,0ZM115.3,104.3c0,.2,0,.4-.4.4h-3.3c-.2,0-.4,0-.4-.4v-23.5c0-.2,0-.4.4-.4h3.3c.2,0,.4,0,.4.4v23.5ZM131.4,90.2c0-.2.1-.4.4-.4h3.3c.2,0,.4,0,.4.4v8.7c0,.7.3,1.3.8,1.6.5.4,1.3.6,2.2.6h.6c.5,0,.8,0,1.1.4.2.3.4.7.4,1.3s-.1,1.2-.3,1.4c-.2.3-.6.4-1.1.4-.8,0-1.5,0-2.1-.2-.6,0-1.1-.5-1.5-1v.7c0,1.3-.1,2.4-.3,3.4s-.6,1.8-1,2.4c-.5.6-1.1,1.1-1.9,1.4-.8.3-1.8.5-3,.5h-1.3c-.2,0-.4,0-.4-.4v-2.8c0-.2,0-.4.4-.4h.8c.7,0,1.2,0,1.6-.4.4-.2.7-.6.8-1.1.2-.5.3-1,.3-1.7v-15l-.2.2ZM139,104.6c-.5,0-.8,0-1-.4-.2-.2-.3-.7-.3-1.3s0-1.2.2-1.5.5-.4,1-.4h4.3c.5,0,.8,0,1.1.4.2.3.4.7.4,1.4s-.1,1.2-.3,1.5c-.2.2-.6.3-1.1.3h-4.3,0ZM143.3,104.6c-.5,0-.8,0-1-.4-.2-.2-.3-.7-.3-1.3s0-1.2.2-1.5.5-.4,1-.4h4.3c.5,0,.8,0,1.1.4.2.3.4.7.4,1.4s-.1,1.2-.3,1.5c-.2.2-.6.3-1.1.3h-4.3,0ZM147.6,104.6c-.5,0-.8,0-1-.4-.2-.2-.3-.7-.3-1.3s0-1.2.2-1.5.5-.4,1-.4h4.3c.5,0,.8,0,1.1.4.2.3.4.7.4,1.4s-.1,1.2-.3,1.5c-.2.2-.6.3-1.1.3h-4.3,0ZM151.9,104.6c-.5,0-.8,0-1.1-.3-.2-.2-.4-.7-.4-1.3s.1-1.2.3-1.5.6-.4,1.1-.4h2.3c.6,0,1,0,1.3-.4s.4-.8.4-1.5v-9c0-.2.1-.4.4-.4h3.3c.2,0,.4,0,.4.4v9.9c0,1.5-.3,2.7-1,3.4-.6.7-1.7,1.1-3.2,1.1h-3.9,0ZM153.2,111.5c-.2,0-.4,0-.4-.4v-3.1c0-.2.1-.4.4-.4h3c.2,0,.4,0,.4.4v3.1c0,.2-.1.4-.4.4h-3ZM157.8,111.5c-.2,0-.4,0-.4-.4v-3.1c0-.2.1-.4.4-.4h3c.2,0,.4,0,.4.4v3.1c0,.2-.1.4-.4.4h-3ZM167.4,111.8c-.2,0-.4,0-.4-.4v-2.8c0-.2.1-.4.4-.4h4.2c.5,0,1,0,1.4-.2.4,0,.7-.3,1-.6.3-.3.5-.6.6-1.1s.2-1.1.2-1.8h-3.6c-1.1,0-2.1,0-3-.4-.9-.2-1.6-.7-2.2-1.2-.6-.6-1.1-1.3-1.4-2.3-.3-.9-.5-2.1-.5-3.4s.2-2.7.6-3.7c.4-1,.9-1.9,1.6-2.5.7-.7,1.4-1.1,2.3-1.4.9-.3,1.8-.4,2.8-.4s2.1,0,2.9.4,1.7.7,2.3,1.3c.6.6,1.1,1.4,1.5,2.4s.5,2.2.5,3.7v4h2.5c.5,0,.8,0,1.1.4.2.3.4.7.4,1.3s-.1,1.3-.3,1.5-.6.3-1.1.3h-2.5v.8c0,2.2-.6,3.9-1.7,4.9-1.1,1-2.8,1.5-4.9,1.5h-4.8,0ZM171.6,92.8c-1.1,0-1.9.4-2.5,1.2s-.9,1.9-.9,3.2.3,2.5.9,3.1,1.5.8,2.6.8h3.2v-4c0-1.4-.3-2.5-.8-3.2s-1.4-1.1-2.5-1.1ZM181.2,104.6c-.5,0-.8,0-1-.4-.2-.2-.3-.7-.3-1.3s0-1.2.2-1.5.5-.4,1-.4h4.3c.5,0,.8,0,1.1.4.2.3.4.7.4,1.4s-.1,1.2-.3,1.5c-.2.2-.6.3-1.1.3h-4.3,0ZM185.5,104.6c-.5,0-.8,0-1-.4-.2-.2-.3-.7-.3-1.3s0-1.2.2-1.5.5-.4,1-.4h4.3c.5,0,.8,0,1.1.4.2.3.4.7.4,1.4s-.1,1.2-.3,1.5c-.2.2-.6.3-1.1.3h-4.3,0ZM197.4,91.2c1.1-.5,2.4-1,3.7-1.4s2.7-.6,4.2-.6,2.9.2,4,.6,2,1,2.7,1.7,1.2,1.6,1.5,2.7.5,2.2.5,3.5,0,.5,0,.7v.5c0,.7.3,1.3.8,1.6.5.4,1.2.6,2.1.6h.6c.5,0,.8,0,1.1.4.2.3.4.7.4,1.3s-.1,1.2-.3,1.4c-.2.3-.6.4-1.1.4-1,0-1.9,0-2.7-.4s-1.3-.9-1.7-1.8c-.3.5-.6.9-.9,1.2-.4.3-.8.5-1.3.7s-1.1.3-1.8.3h-11.7c-.8,0-1.3-.2-1.6-.6-.4.3-.9.5-1.4.5h-4.6c-.5,0-.8,0-1.1-.3-.2-.2-.4-.7-.4-1.3s.1-1.3.3-1.5.6-.4,1.1-.4h1.8c.4,0,.8,0,1-.2.2,0,.4-.4.6-.7.1-.3.2-.8.2-1.3v-18.1c0-.2.1-.4.4-.4h3.3c.2,0,.4,0,.4.4v10.4h-.1ZM204.8,92.8c-1.3,0-2.6.2-3.9.6-1.3.4-2.4.8-3.4,1.3v5.6c0,.3,0,.5-.1.7h10.2c.6,0,1.1-.2,1.5-.4.3-.2.6-.6.7-1.1.1-.5.2-1.2.2-2s0-1.4-.2-2-.4-1.1-.8-1.5c-.4-.4-.9-.7-1.6-.9-.6-.2-1.5-.3-2.5-.3h0ZM217.6,104.6c-.5,0-.8,0-1-.4-.2-.2-.3-.7-.3-1.3s0-1.2.2-1.5.5-.4,1-.4h4.3c.5,0,.8,0,1.1.4.2.3.4.7.4,1.4s-.1,1.2-.3,1.5c-.2.2-.6.3-1.1.3h-4.3,0ZM221.8,104.6c-.5,0-.8,0-1.1-.3-.2-.2-.4-.7-.4-1.3s.1-1.2.3-1.5.6-.4,1.1-.4h2.3c.6,0,1,0,1.3-.4s.4-.8.4-1.5v-9c0-.2.1-.4.4-.4h3.3c.2,0,.4,0,.4.4v9.9c0,1.5-.3,2.7-1,3.4-.6.7-1.7,1.1-3.2,1.1h-3.9,0ZM224.1,86.3c-.2,0-.4,0-.4-.4v-3.1c0-.2.1-.4.4-.4h3c.2,0,.4,0,.4.4v3.1c0,.2-.1.4-.4.4h-3ZM228.7,86.3c-.2,0-.4,0-.4-.4v-3.1c0-.2.1-.4.4-.4h3c.2,0,.4,0,.4.4v3.1c0,.2-.1.4-.4.4h-3ZM241.2,104.6c-1.1,0-2.1,0-3-.4-.9-.2-1.6-.7-2.2-1.2-.6-.6-1.1-1.3-1.4-2.3s-.5-2.1-.5-3.4.2-2.7.6-3.7c.4-1,.9-1.9,1.6-2.5.7-.7,1.5-1.1,2.3-1.4.9-.3,1.8-.4,2.8-.4s2.1,0,2.9.4,1.7.7,2.3,1.4c.6.6,1.1,1.4,1.5,2.4s.5,2.2.5,3.7v8.3c0,2.2-.6,3.9-1.7,4.9-1.1,1-2.8,1.5-4.9,1.5h-4.8c-.2,0-.4,0-.4-.4v-2.8c0-.2.1-.4.4-.4h4.2c.5,0,.9,0,1.3,0,.4,0,.7-.3,1-.5.3-.3.5-.6.7-1.1s.2-1.1.2-1.9h-3.6.2ZM241.5,92.8c-1.1,0-1.9.4-2.5,1.2-.6.8-.9,1.9-.9,3.2s.3,2.5.9,3.1,1.5.8,2.6.8h3.2v-4c0-1.4-.3-2.5-.8-3.2s-1.4-1.1-2.5-1.1Z"/>
</svg>